<?xml version="1.0" encoding="UTF-8"?>
<svg id="Layer_1" data-name="Layer 1" xmlns="http://www.w3.org/2000/svg" viewBox="0 0 301.02 301.02">
  <rect width="301.02" height="301.02" rx="58.6" ry="58.6" fill="#000000" />
  <path fill="#ffffff" d="M248.94,220.32l-1.27-34.56c-.45-12.23-8.1-23.03-19.49-27.51l-35.35-13.92c-.54-.21-1.01-.56-1.37-1.01l-23.32-28.55c-1.03-1.27-1.77-2.86-2.14-4.6-3.69-17.67-19.47-30.49-37.53-30.49h-38.04c-21.14,0-38.35,17.2-38.35,38.35v102.79h27.42v-102.79c0-6.03,4.9-10.93,10.93-10.93h38.04c5.62,0,10.4,4.38,10.89,9.97v.18s-.02.18-.02.18c-.39,2.29-1.68,8.24-5.06,14.13-5.15,8.99-12.36,13.57-22.69,14.41-5.99.49-11.15,4.24-13.45,9.79-2.29,5.52-1.32,11.79,2.53,16.36l41.11,49.08h35.76l-44.24-52.81,1.6-.8c8.93-4.43,16.31-11.29,21.96-20.37l1.03-1.67,12.34,15.11c3.33,4.07,7.67,7.25,12.56,9.18l35.35,13.91c1.25.49,2.08,1.67,2.13,3.01l1.2,34.56h27.42l-.04-1h.07Z" transform="translate(3 22) scale(1.0)"/>
</svg>
